# xmcd
# 
# Track frame offsets:
#     150
#     17775
#     30196
#     43123
#     57007
#     68434
#     81276
#     97999
#     113641
#     129444
#     144361
#     157088
# 
# Disc length: 2271
# 
# Revision: 1
# Processed by: cddbd v1.5.2PL0 Copyright (c) Steve Scherf et al.
# Submitted via: fre:ac v1.0.27
# 
DISCID=8d08dd0c
DTITLE=Paul Severs - Goud Van Hier
DYEAR=2009
DGENRE=Nederlands
TTITLE0=Paul Severs - Ik Ben Verliefd Op Jou
TTITLE1=Paul Severs - Geen Wonder Dat Ik Ween
TTITLE2=Paul Severs - Hey Baby
TTITLE3=Paul Severs - Oh Little Darling
TTITLE4=Paul Severs - Kom Dichterbij
TTITLE5=Paul Severs - Zeg 'Ns Meisje
TTITLE6=Paul Severs - Waarom, Zeg Me Waarom
TTITLE7=Paul Severs - Heel Alleen
TTITLE8=Paul Severs - Loop Niet Voorbij
TTITLE9=Paul Severs - Jij Bent Mijn Idool
TTITLE10=Paul Severs - My Love
TTITLE11=Paul Severs - Geen Wonder Dat Ik Ween Remix 2007
EXTD=YEAR: 2009
EXTT0=
EXTT1=
EXTT2=
EXTT3=
EXTT4=
EXTT5=
EXTT6=
EXTT7=
EXTT8=
EXTT9=
EXTT10=
EXTT11=
PLAYORDER=
